Results
version=1
nRows=9
nColumns=24
inDegrees=yes
endheader
time	pelvis_tilt	pelvis_list	pelvis_rotation	pelvis_tx	pelvis_ty	pelvis_tz	hip_flexion_r	hip_adduction_r	hip_rotation_r	knee_angle_r	ankle_angle_r	subtalar_angle_r	mtp_angle_r	hip_flexion_l	hip_adduction_l	hip_rotation_l	knee_angle_l	ankle_angle_l	subtalar_angle_l	mtp_angle_l	lumbar_extension	lumbar_bending	lumbar_rotation
      1.26650000	     -4.46994472	      3.22661448	     -2.84795116	      0.16577439	      0.90396364	      0.31410186	     21.33774001	     -7.09773537	    -10.33504512	    -71.80990294	     -4.13509281	      1.87900843	     10.14128998	     18.09826347	      6.62784109	     -2.49435663	    -21.02824291	      8.15850080	     -9.05449124	      3.85614936	      0.26364774	     -7.66315094	      3.40042737
      1.27066667	     -4.44594132	      3.06910221	     -2.72994807	      0.17102544	      0.90517443	      0.31387551	     21.89356600	     -6.90935094	    -10.44625787	    -71.34531680	     -3.63824446	      1.69597814	      9.99316977	     17.44619684	      6.53364857	     -2.29801676	    -20.53917485	      8.24455633	     -8.99600817	      3.84568282	      0.19971189	     -7.47219344	      3.09493899
      1.27483333	     -4.44278147	      2.91049170	     -2.60828167	      0.17624433	      0.90632053	      0.31364002	     22.46037831	     -6.71561772	    -10.55192449	    -70.82137064	     -3.13668487	      1.52766457	      9.84979289	     16.82429698	      6.43345934	     -2.10687662	    -20.05583888	      8.30878208	     -8.93385158	      3.83649859	      0.15996478	     -7.27729825	      2.84038338
      1.27900000	     -4.45924996	      2.75711467	     -2.48796455	      0.18146234	      0.90740285	      0.31342652	     23.03286148	     -6.52050079	    -10.65124820	    -70.23490798	     -2.62501174	      1.35579252	      9.80812809	     16.23129440	      6.32627542	     -1.96008746	    -19.58181608	      8.35249127	     -8.83180185	      3.83540374	      0.16730474	     -7.09193677	      2.72419304
      1.28316667	     -4.40526287	      2.58188984	     -2.35261681	      0.18668716	      0.90860695	      0.31317034	     23.49118415	     -6.31283374	    -10.76958946	    -69.55170125	     -2.19447123	      1.26980856	      9.67184500	     15.53835165	      6.21234464	     -1.72542262	    -19.06205937	      8.41481578	     -8.79288953	      3.83068361	      0.04182907	     -6.87677751	      2.35561718
      1.28733333	     -4.40245698	      2.40062077	     -2.20715218	      0.19186803	      0.90968392	      0.31293067	     23.99041174	     -6.08759600	    -10.88423869	    -68.81032325	     -1.70451815	      1.15388106	      9.60895768	     14.92953585	      6.07537823	     -1.54187987	    -18.58876894	      8.43552069	     -8.70302564	      3.82978986	     -0.00472264	     -6.65914812	      2.18784256
      1.29150000	     -4.33812567	      2.22841202	     -2.06598303	      0.19709489	      0.91084116	      0.31265139	     24.39646925	     -5.89041932	    -11.01187267	    -67.99427270	     -1.30799172	      1.09625788	      9.48269061	     14.22257138	      5.95662754	     -1.33086255	    -18.05280837	      8.49342098	     -8.65304949	      3.82941632	     -0.11663493	     -6.43651040	      1.84924546
      1.29566667	     -4.30237367	      2.05952172	     -1.90811322	      0.20228261	      0.91190717	      0.31238355	     24.81695775	     -5.68930166	    -11.13632631	    -67.12377436	     -0.86568740	      1.01934924	      9.27494714	     13.56273380	      5.83455141	     -1.11827257	    -17.53746991	      8.48884954	     -8.59664118	      3.82955462	     -0.20388669	     -6.23753600	      1.50633642
      1.29983333	     -4.25871215	      1.85981349	     -1.74659047	      0.20747297	      0.91296308	      0.31211752	     25.19603359	     -5.45378879	    -11.27247249	    -66.16428371	     -0.47287524	      0.98213778	      9.18719947	     12.90715009	      5.67070880	     -0.93443395	    -17.05268629	      8.53974787	     -8.50584713	      3.83233105	     -0.28964111	     -5.99581207	      1.34522793
